# xmcd CD database file
#
# Track frame offsets:
#	150
#	27322
#	51890
#	85164
#	105982
#	134450
#	158906
#	180485
#	213066
#	237206
#	267224
#	286930
#	304714
#
# Disc length: 4407 seconds
#
# Revision: 2
# Processed by: cddbd v1.5.2PL0 Copyright (c) Steve Scherf et al.
# Submitted via: CDex 1.70beta2
#
DISCID=a511350d
DTITLE=Stieg Larsson - The Girl Who Played with Fire
DYEAR=2009
DGENRE=Audiobook
TTITLE0=9-01
TTITLE1=9-02
TTITLE2=9-03
TTITLE3=9-04
TTITLE4=9-05
TTITLE5=9-06
TTITLE6=9-07
TTITLE7=9-08
TTITLE8=9-09
TTITLE9=9-10
TTITLE10=9-11
TTITLE11=9-12
TTITLE12=9-13
EXTD=YEAR: 2009
EXTT0=
EXTT1=
EXTT2=
EXTT3=
EXTT4=
EXTT5=
EXTT6=
EXTT7=
EXTT8=
EXTT9=
EXTT10=
EXTT11=
EXTT12=
PLAYORDER=
